<svg height="220.0" viewBox="-108.7 -108.7 218.0 220.0" width="218.0" xmlns="http://www.w3.org/2000/svg">
	<g>
		<circle cx="-5.2" cy="46.5" r="2.0" />
		<circle cx="66.6" cy="-27.4" r="2.0" />
		<circle cx="0.6" cy="8.8" r="2.0" />
		<circle cx="38.2" cy="88.6" r="2.0" />
		<circle cx="82.5" cy="-14.4" r="2.0" />
		<circle cx="50.2" cy="33.6" r="2.0" />
		<circle cx="-17.3" cy="49.5" r="2.0" />
		<circle cx="0.6" cy="56.5" r="2.0" />
		<circle cx="-27.2" cy="0.4" r="2.0" />
		<circle cx="65.6" cy="18.4" r="2.0" />
		<circle cx="35.7" cy="70.9" r="2.0" />
		<circle cx="47.9" cy="-27.8" r="2.0" />
		<circle cx="91.7" cy="-3.5" r="2.0" />
		<circle cx="-15.0" cy="39.5" r="2.0" />
		<circle cx="-69.8" cy="-10.7" r="2.0" />
		<circle cx="77.4" cy="-49.2" r="2.0" />
		<circle cx="-41.4" cy="32.2" r="2.0" />
		<circle cx="45.3" cy="18.5" r="2.0" />
		<circle cx="52.8" cy="63.4" r="2.0" />
		<circle cx="-87.6" cy="27.9" r="2.0" />
		<circle cx="40.5" cy="57.0" r="2.0" />
		<circle cx="68.1" cy="-58.2" r="2.0" />
		<circle cx="-94.7" cy="7.5" r="2.0" />
		<circle cx="-22.9" cy="91.3" r="2.0" />
		<circle cx="-13.6" cy="34.1" r="2.0" />
		<circle cx="-70.4" cy="66.0" r="2.0" />
		<circle cx="76.1" cy="53.0" r="2.0" />
		<circle cx="68.0" cy="-1.3" r="2.0" />
		<circle cx="77.6" cy="-31.7" r="2.0" />
		<circle cx="-92.3" cy="-15.5" r="2.0" />
		<circle cx="57.5" cy="-61.3" r="2.0" />
		<circle cx="1.3" cy="25.5" r="2.0" />
		<circle cx="95.6" cy="5.8" r="2.0" />
		<circle cx="-7.9" cy="-71.3" r="2.0" />
		<circle cx="45.1" cy="8.9" r="2.0" />
		<circle cx="0.9" cy="2.8" r="2.0" />
		<circle cx="-28.1" cy="-77.6" r="2.0" />
		<circle cx="20.0" cy="-20.4" r="2.0" />
		<circle cx="-56.8" cy="-25.7" r="2.0" />
		<circle cx="42.3" cy="32.2" r="2.0" />
		<circle cx="-12.8" cy="-40.1" r="2.0" />
		<circle cx="-18.4" cy="26.0" r="2.0" />
		<circle cx="78.9" cy="-36.1" r="2.0" />
		<circle cx="33.5" cy="-45.5" r="2.0" />
		<circle cx="5.2" cy="76.5" r="2.0" />
		<circle cx="-79.5" cy="-47.7" r="2.0" />
		<circle cx="-69.5" cy="-21.5" r="2.0" />
		<circle cx="-37.6" cy="-47.9" r="2.0" />
		<circle cx="-25.3" cy="12.0" r="2.0" />
		<circle cx="49.7" cy="69.4" r="2.0" />
		<circle cx="75.6" cy="18.5" r="2.0" />
		<circle cx="-29.5" cy="66.0" r="2.0" />
		<circle cx="-1.9" cy="-14.7" r="2.0" />
		<circle cx="-25.4" cy="-82.9" r="2.0" />
		<circle cx="5.2" cy="-4.0" r="2.0" />
		<circle cx="42.8" cy="-18.0" r="2.0" />
		<circle cx="45.3" cy="-27.4" r="2.0" />
		<circle cx="-26.7" cy="18.0" r="2.0" />
		<circle cx="-35.5" cy="59.3" r="2.0" />
		<circle cx="-91.2" cy="-5.2" r="2.0" />
		<circle cx="-90.2" cy="-41.6" r="2.0" />
		<circle cx="73.2" cy="3.2" r="2.0" />
		<circle cx="-49.9" cy="60.4" r="2.0" />
		<circle cx="-37.8" cy="-53.0" r="2.0" />
		<circle cx="36.8" cy="-56.2" r="2.0" />
		<circle cx="-64.3" cy="-36.6" r="2.0" />
		<circle cx="-17.1" cy="81.1" r="2.0" />
		<circle cx="27.0" cy="42.1" r="2.0" />
		<circle cx="56.1" cy="-60.6" r="2.0" />
		<circle cx="-31.1" cy="-37.0" r="2.0" />
		<circle cx="-58.1" cy="57.0" r="2.0" />
		<circle cx="3.5" cy="-12.9" r="2.0" />
		<circle cx="-64.5" cy="-32.1" r="2.0" />
		<circle cx="33.9" cy="23.8" r="2.0" />
		<circle cx="-18.1" cy="54.3" r="2.0" />
		<circle cx="80.2" cy="-23.8" r="2.0" />
		<circle cx="-20.4" cy="-64.3" r="2.0" />
		<circle cx="-15.6" cy="51.5" r="2.0" />
		<circle cx="8.9" cy="92.5" r="2.0" />
		<circle cx="-32.9" cy="-59.3" r="2.0" />
		<circle cx="-32.4" cy="-17.0" r="2.0" />
		<circle cx="13.6" cy="-57.4" r="2.0" />
		<circle cx="57.4" cy="-1.7" r="2.0" />
		<circle cx="-84.2" cy="-24.2" r="2.0" />
		<circle cx="-29.8" cy="-2.1" r="2.0" />
		<circle cx="-46.5" cy="-40.3" r="2.0" />
		<circle cx="-11.2" cy="98.2" r="2.0" />
		<circle cx="-64.5" cy="-34.7" r="2.0" />
		<circle cx="91.2" cy="18.8" r="2.0" />
		<circle cx="35.6" cy="89.7" r="2.0" />
		<circle cx="21.9" cy="-94.7" r="2.0" />
		<circle cx="-12.8" cy="28.3" r="2.0" />
		<circle cx="32.9" cy="-28.9" r="2.0" />
		<circle cx="-43.3" cy="18.6" r="2.0" />
		<circle cx="-85.9" cy="-15.6" r="2.0" />
		<circle cx="75.9" cy="15.9" r="2.0" />
		<circle cx="-75.7" cy="-4.3" r="2.0" />
		<circle cx="72.8" cy="-13.7" r="2.0" />
		<circle cx="26.0" cy="-61.1" r="2.0" />
		<circle cx="-72.3" cy="-0.4" r="2.0" />
		<circle cx="-94.7" cy="7.5" fill="none" r="4.0" stroke="black" />
		<circle cx="-87.6" cy="27.9" fill="none" r="4.0" stroke="black" />
		<circle cx="-70.4" cy="66.0" fill="none" r="4.0" stroke="black" />
		<circle cx="-11.2" cy="98.2" fill="none" r="4.0" stroke="black" />
		<circle cx="35.6" cy="89.7" fill="none" r="4.0" stroke="black" />
		<circle cx="38.2" cy="88.6" fill="none" r="4.0" stroke="black" />
		<circle cx="76.1" cy="53.0" fill="none" r="4.0" stroke="black" />
		<circle cx="91.2" cy="18.8" fill="none" r="4.0" stroke="black" />
		<circle cx="95.6" cy="5.8" fill="none" r="4.0" stroke="black" />
		<circle cx="77.4" cy="-49.2" fill="none" r="4.0" stroke="black" />
		<circle cx="68.1" cy="-58.2" fill="none" r="4.0" stroke="black" />
		<circle cx="21.9" cy="-94.7" fill="none" r="4.0" stroke="black" />
		<circle cx="-25.4" cy="-82.9" fill="none" r="4.0" stroke="black" />
		<circle cx="-90.2" cy="-41.6" fill="none" r="4.0" stroke="black" />
		<polygon fill="none" points="-94.7,7.5 -87.6,27.9 -70.4,66.0 -11.2,98.2 35.6,89.7 38.2,88.6 76.1,53.0 91.2,18.8 95.6,5.8 77.4,-49.2 68.1,-58.2 21.9,-94.7 -25.4,-82.9 -90.2,-41.6 " stroke="black" />
	</g>
</svg>